<?xml version="1.0" encoding="UTF-8"?>
<svg width="17px" height="17px" viewBox="0 0 17 17" version="1.1" xmlns="http://www.w3.org/2000/svg" xmlns:xlink="http://www.w3.org/1999/xlink">
    <!-- Generator: Sketch 55.2 (78181) - https://sketchapp.com -->
    <title>Attack</title>
    <desc>Created with Sketch.</desc>
    <g id="Login-Flow" stroke="none" stroke-width="1" fill="none" fill-rule="evenodd">
        <g id="Home" transform="translate(-61.000000, -612.000000)">
            <g id="Attack" transform="translate(61.000000, 612.000000)">
                <g id="Group-3">
                    <circle id="Oval" fill="#1A76E2" cx="8.5" cy="8.5" r="8.5"></circle>
                    <g id="sword-svgrepo-com" transform="translate(8.500000, 7.846154) scale(-1, 1) translate(-8.500000, -7.846154) translate(2.615385, 2.615385)" fill="#FFFFFF" fill-rule="nonzero">
                        <path d="M7.43280702,6.94765866 L6.95935773,6.94765866 L7.67221433,1.90645324 C7.69139943,1.77091902 7.62590453,1.59134195 7.51989871,1.48869031 L6.08334648,0.0979113884 C6.01907097,0.0356899091 5.9283211,2.05169215e-13 5.83434662,2.05169215e-13 C5.74037214,2.05169215e-13 5.64964937,0.0356899091 5.58537386,0.0979113884 L4.14879452,1.4886673 C4.04278871,1.59131893 3.9773209,1.77091902 3.99647891,1.90643023 L4.7093355,6.94763565 L4.23588621,6.94763565 C4.00794119,6.94763565 3.82248521,7.10512226 3.82248521,7.29868997 L3.82248521,7.73552893 C3.82248521,7.92909664 4.00794119,8.08658326 4.23588621,8.08658326 L5.24169498,8.08658326 L5.24169498,8.84923358 C4.9703396,9.00915935 4.79219997,9.27546452 4.79219997,9.57658519 C4.79219997,10.0645544 5.25968779,10.4615385 5.83431952,10.4615385 C6.40895125,10.4615385 6.87643907,10.0645544 6.87643907,9.57658519 C6.87643907,9.27546452 6.69829944,9.00915935 6.42694406,8.84923358 L6.42694406,8.08658326 L7.43275283,8.08658326 C7.66069785,8.08658326 7.84615385,7.92909664 7.84615385,7.73552893 L7.84615385,7.29868997 C7.84620803,7.10512226 7.66075205,6.94765866 7.43280702,6.94765866 Z" id="Path" transform="translate(5.834320, 5.230769) rotate(-45.000000) translate(-5.834320, -5.230769) "></path>
                    </g>
                </g>
            </g>
        </g>
    </g>
</svg>